<svg version="1" xmlns="http://www.w3.org/2000/svg" width="834.667" height="834.667" viewBox="0 0 626.000000 626.000000"><path d="M283 1.5c-38.3 4.2-65.7 11.5-99 26.4-11.1 4.9-17.5 8.2-31.5 16.1-13.5 7.6-37.5 25.6-51.2 38.2-10.9 10.2-11.1 10.4-19.1 19.1-64.9 70.5-93.7 168.5-77.7 264 5.7 33.6 17.6 68.6 33.1 96.7 7.7 13.9 8.5 15.3 21.4 34.4 4.9 7.3 19.2 24.3 29.1 34.7 10.6 11 31.1 28.7 41.9 36.1 50 34.4 94.6 51 154 57.3 58.3 6.3 126.1-7.5 178-36.1 14.8-8.1 17.4-9.8 34-21.1 12.7-8.8 34.7-28.3 47.1-41.8 14-15.3 31.2-38.4 38.9-52 7.2-12.8 11-20.1 15.2-29.1 38.2-82.8 38.2-180.1 0-262.7C572.4 128.1 533.4 83 484 50.6c-7.8-5.1-9.7-6.2-22-13-28.1-15.5-64.2-27.9-96.7-33.1-27.7-4.5-58.6-5.6-82.3-3zM173.4 148.6c11.3 2.8 22.2 10.3 29.9 20.7 3.4 4.4 9.2 16.8 10.2 21.4.3 1.8 1 3.3 1.4 3.3.5 0 5-2.6 10.2-5.7 20.4-12.3 42.8-21.1 63.4-24.9 13.7-2.6 40.1-2.6 54 0 15.9 2.9 29 7.2 43 14.1 12.5 6.2 15.1 7.6 24.5 13.8 2.3 1.6 4.6 2.5 5 2 .4-.4 1.3-2.6 2-4.8.7-2.2 2.6-6.7 4.3-10 14.6-29.2 45.8-39.8 74-25.2 19 9.8 35.3 33.6 37.1 54.2 1.3 14.9-3.5 34.9-11.1 46.3-8.5 12.9-23.3 23.7-34 25-2.4.2-4.3.5-4.3.6 0 .1 1.1 3 2.4 6.4 10.4 26.5 14.2 58.5 9.6 81.7-4.7 24.3-14.2 42.5-30.8 59.1-21.3 21.3-46.1 34.3-83.2 43.5-11.5 2.9-35.2 6.1-50.5 6.8-57.2 2.7-106.7-7.6-143.5-30.1-19.8-12-36.3-29.6-46-48.8-15.7-31-15.8-72.9-.4-112.2 1.3-3.4 2.4-6.3 2.4-6.4 0-.1-1.9-.4-4.2-.6-5.1-.6-13.5-4.5-20-9.3-14.7-10.8-24.9-34.3-23.4-54 2.4-32.7 26.6-62.8 54.8-68 7.9-1.5 13.9-1.2 23.2 1.1z"/><path d="M242 251c-25.3 9-55 40.1-64 67-2.7 8.1-3 21.6-.5 28.9 2.2 6.7 8.2 13.3 14.7 16.1 8.4 3.7 16.3 4.9 31.1 5 13.2 0 14.2-.1 21-3 16.4-6.9 27.5-19.8 33.7-39.2 1.6-4.8 2.2-10.3 2.6-23.3 1.2-34.6-2.6-47.4-15.5-52-6-2.1-16.4-1.9-23.1.5zm10 45.4c9.9 6.5 9 22.1-1.5 27-7.4 3.5-15.1 1.7-20-4.9-6.8-8.8-2.5-20.7 9-24.7 3.3-1.1 8.5 0 12.5 2.6zM361.6 250.4c-7.1 2.7-11.7 8.8-14.7 19.6-.8 2.9-1.3 12.3-1.3 26.5-.1 21.5 0 22.2 2.7 30 6.8 19.9 18.5 32 36.7 38.1 10.9 3.6 38.8 1.7 50.5-3.5 5.3-2.3 11.4-8.4 13.9-13.6 2.8-5.8 3.4-20.4 1.1-28-7-24.2-37.6-57-62.7-67.2-7.8-3.1-20.3-4.1-26.2-1.9zm29.7 45.6c1.9 1.2 4.3 3.9 5.6 6.6 6.8 13.5-7.5 27.5-21.2 20.9-5.8-2.7-8.2-6.9-8.2-14 0-7.3 2.4-11.2 8.7-14.4 5-2.5 9.8-2.2 15.1.9zM304.5 358.6c-16.2 4.1-21.7 13-14.9 24 6.4 10.4 18.1 15.9 28.7 13.5 10.1-2.2 21.2-13.7 21.2-22 0-5.1-4.3-10.3-10.8-13.1-5.1-2.2-19.3-3.6-24.2-2.4zM264.9 423.1c-1.7 1.7-2 2.9-1.5 6.1.9 5.2 2.5 8.3 7.6 14.1 9.8 11.1 25.5 17.7 42 17.7 14.9 0 28.8-5.7 39.8-16.2 8.5-8.1 12-16.5 8.8-21.3-2.1-3.2-6.1-3.3-23.4-.4-16.8 2.8-34.6 2.8-50.5 0-15.4-2.7-20.1-2.7-22.8 0z"/></svg>