<?xml version="1.0" standalone="no"?>
<!DOCTYPE svg PUBLIC "-//W3C//DTD SVG 20010904//EN"
 "http://www.w3.org/TR/2001/REC-SVG-20010904/DTD/svg10.dtd">
<svg version="1.0" xmlns="http://www.w3.org/2000/svg"
 width="626.000000pt" height="626.000000pt" viewBox="0 0 626.000000 626.000000"
 preserveAspectRatio="xMidYMid meet">
<metadata>
Created by potrace 1.11, written by Peter Selinger 2001-2013
</metadata>
<g transform="translate(0.000000,626.000000) scale(0.100000,-0.100000)"
fill="#000000" stroke="none">
<path d="M2830 6245 c-383 -42 -657 -115 -990 -264 -111 -49 -175 -82 -315
-161 -135 -76 -375 -256 -512 -382 -109 -102 -111 -104 -191 -191 -649 -705
-937 -1685 -777 -2640 57 -336 176 -686 331 -967 77 -139 85 -153 214 -344 49
-73 192 -243 291 -347 106 -110 311 -287 419 -361 500 -344 946 -510 1540
-573 583 -63 1261 75 1780 361 148 81 174 98 340 211 127 88 347 283 471 418
140 153 312 384 389 520 72 128 110 201 152 291 382 828 382 1801 0 2627 -248
536 -638 987 -1132 1311 -78 51 -97 62 -220 130 -281 155 -642 279 -967 331
-277 45 -586 56 -823 30z m-1096 -1471 c113 -28 222 -103 299 -207 34 -44 92
-168 102 -214 3 -18 10 -33 14 -33 5 0 50 26 102 57 204 123 428 211 634 249
137 26 401 26 540 0 159 -29 290 -72 430 -141 125 -62 151 -76 245 -138 23
-16 46 -25 50 -20 4 4 13 26 20 48 7 22 26 67 43 100 146 292 458 398 740 252
190 -98 353 -336 371 -542 13 -149 -35 -349 -111 -463 -85 -129 -233 -237
-340 -250 -24 -2 -43 -5 -43 -6 0 -1 11 -30 24 -64 104 -265 142 -585 96 -817
-47 -243 -142 -425 -308 -591 -213 -213 -461 -343 -832 -435 -115 -29 -352
-61 -505 -68 -572 -27 -1067 76 -1435 301 -198 120 -363 296 -460 488 -157
310 -158 729 -4 1122 13 34 24 63 24 64 0 1 -19 4 -42 6 -51 6 -135 45 -200
93 -147 108 -249 343 -234 540 24 327 266 628 548 680 79 15 139 12 232 -11z"/>
<path d="M2420 3750 c-253 -90 -550 -401 -640 -670 -27 -81 -30 -216 -5 -289
22 -67 82 -133 147 -161 84 -37 163 -49 311 -50 132 0 142 1 210 30 164 69
275 198 337 392 16 48 22 103 26 233 12 346 -26 474 -155 520 -60 21 -164 19
-231 -5z m100 -454 c99 -65 90 -221 -15 -270 -74 -35 -151 -17 -200 49 -68 88
-25 207 90 247 33 11 85 0 125 -26z"/>
<path d="M3616 3756 c-71 -27 -117 -88 -147 -196 -8 -29 -13 -123 -13 -265 -1
-215 0 -222 27 -300 68 -199 185 -320 367 -381 109 -36 388 -17 505 35 53 23
114 84 139 136 28 58 34 204 11 280 -70 242 -376 570 -627 672 -78 31 -203 41
-262 19z m297 -456 c19 -12 43 -39 56 -66 68 -135 -75 -275 -212 -209 -58 27
-82 69 -82 140 0 73 24 112 87 144 50 25 98 22 151 -9z"/>
<path d="M3045 2674 c-162 -41 -217 -130 -149 -240 64 -104 181 -159 287 -135
101 22 212 137 212 220 0 51 -43 103 -108 131 -51 22 -193 36 -242 24z"/>
<path d="M2649 2029 c-17 -17 -20 -29 -15 -61 9 -52 25 -83 76 -141 98 -111
255 -177 420 -177 149 0 288 57 398 162 85 81 120 165 88 213 -21 32 -61 33
-234 4 -168 -28 -346 -28 -505 0 -154 27 -201 27 -228 0z"/>
</g>
</svg>
